<?xml version='1.0' encoding='UTF-8'?>

<svg xmlns="http://www.w3.org/2000/svg" xmlns:xlink="http://www.w3.org/1999/xlink" xmlns:sodipodi="http://sodipodi.sourceforge.net/DTD/sodipodi-0.dtd"
xmlns:inkscape="http://www.inkscape.org/namespaces/inkscape"
viewbox="0 0 1000 1000" onload="init()">

<script type="text/ecmascript" xlink:href="../widgets.js"></script>

<script type="text/ecmascript">

<![CDATA[

function init()
{
    var background = new Background();

	var workArea = wrapElementById("workArea");
    
	var coverEl1 = cloneElementById(document, "iconCircleCover");
	var contractEl = cloneElementById(document, "iconContract");
	var contractOverEl = cloneElementById(document, "iconContractMouseover");

	var coverEl2 = cloneElementById(document, "iconCircleCover");
	var expandEl = cloneElementById(document, "iconExpand");
	var expandOverEl = cloneElementById(document, "iconExpandMouseover");
	
	var paramButton = new ParamButton2("buttonPressed", {x:100, y:100, width:10, height:10, normalElements:{normal:expandEl, mouseover:expandOverEl, cover:coverEl1}, selectedElements:{normal:contractEl, cover:coverEl2}});
	paramButton.setToggle(true);
	workArea.appendChild(paramButton);
}

]]>

</script>

<defs>
<linearGradient
   id="linearGradient4024">
  <stop
     style="stop-color:#e00000;stop-opacity:1;"
     offset="0"
     id="stop4026" />
  <stop
     style="stop-color:#5b0000;stop-opacity:1;"
     offset="1"
     id="stop4028" />
</linearGradient>
<linearGradient
   id="linearGradient4032">
  <stop
     style="stop-color:#40a05d;stop-opacity:1;"
     offset="0"
     id="stop4034" />
  <stop
     style="stop-color:#255c36;stop-opacity:1;"
     offset="1"
     id="stop4036" />
</linearGradient>
<linearGradient
   id="linearGradient4033">
  <stop
     style="stop-color:#00ff00;stop-opacity:1;"
     offset="0"
     id="stop4044" />
  <stop
     style="stop-color:#255c36;stop-opacity:1;"
     offset="1"
     id="stop4046" />
</linearGradient>
<radialGradient
   inkscape:collect="always"
   xlink:href="#linearGradient4024"
   id="radialGradient4030"
   cx="-1.1187607"
   cy="1.5876559"
   fx="-1.1187607"
   fy="1.5876559"
   r="19.163882"
   gradientTransform="matrix(1,0,0,0.8697708,0,0.20675916)"
   gradientUnits="userSpaceOnUse" />
<radialGradient
      inkscape:collect="always"
      xlink:href="#linearGradient4032"
      id="radialGradient4038"
      cx="-1.1187607"
      cy="1.5876559"
      fx="-1.1187607"
      fy="1.5876559"
      r="19.163882"
      gradientTransform="matrix(1,0,0,0.8697708,0,0.20675916)"
      gradientUnits="userSpaceOnUse" />
<radialGradient
      inkscape:collect="always"
      xlink:href="#linearGradient4033"
      id="radialGradient4039"
      cx="-1.1187607"
      cy="1.5876559"
      fx="-1.1187607"
      fy="1.5876559"
      r="19.163882"
      gradientTransform="matrix(1,0,0,0.8697708,0,0.20675916)"
      gradientUnits="userSpaceOnUse" />
<g
   id="iconContract">
  <path
     transform="matrix(0.9822803,0,0,1.1387975,-0.27817221,-2.4577121)"
     d="m 17.039587,1.5876559 a 18.158348,15.662651 0 1 1 -36.316696,0 18.158348,15.662651 0 1 1 36.316696,0 z"
     sodipodi:ry="15.662651"
     sodipodi:rx="18.158348"
     sodipodi:cy="1.5876559"
     sodipodi:cx="-1.1187607"
     id="path4010"
     style="fill:url(#radialGradient4030);fill-opacity:1;stroke:#000000;stroke-width:2"
     sodipodi:type="arc" />
  <path
     d="m -8.1251822,1.3701077 -0.3046875,-0.328125 c 0.4687486,-1.18748918 0.8671857,-2.3203005 1.1953125,-3.3984375 2.2812456,0.1093879 4.1796812,0.1640754 5.6953125,0.1640625 1.2499909,1.29e-5 3.5468636,-0.054675 6.890625,-0.1640625 l 0.1875,0.3515625 c -0.5156394,1.18751149 -0.8984515,2.31251036 -1.1484375,3.375 -2.1406366,-0.1406156 -4.10938467,-0.210928 -5.90625,-0.2109375 -2.0156309,9.5e-6 -4.2187537,0.070322 -6.609375,0.2109375"
     style="font-size:48px;font-style:normal;fill:#ffffff;fill-opacity:1;stroke:none"
     id="path4021" />
</g>
<g
   id="iconExpand">
  <path
     sodipodi:type="arc"
     style="fill:url(#radialGradient4038);fill-opacity:1;stroke:#000000;stroke-width:2"
     id="path4002"
     sodipodi:cx="-1.1187607"
     sodipodi:cy="1.5876559"
     sodipodi:rx="18.158348"
     sodipodi:ry="15.662651"
     d="m 17.039587,1.5876559 a 18.158348,15.662651 0 1 1 -36.316696,0 18.158348,15.662651 0 1 1 36.316696,0 z"
     transform="matrix(0.9822803,0,0,1.1387975,-0.27817221,-2.4577121)" />
  <path
     d="m -9.357276,0.62502289 0,-2.17187499 6.78125,0 0,-6.78125 2.17187504,0 0,6.78125 6.78124996,0 0,2.17187499 -6.78124996,0 0,6.78125001 -2.17187504,0 0,-6.78125001 -6.78125,0"
     style=""
     id="path4017" />
</g>
<g
   id="iconExpandMouseover">
  <path
     sodipodi:type="arc"
     style="fill:url(#radialGradient4039);fill-opacity:1;stroke:#000000;stroke-width:2"
     id="path4002"
     sodipodi:cx="-1.1187607"
     sodipodi:cy="1.5876559"
     sodipodi:rx="18.158348"
     sodipodi:ry="15.662651"
     d="m 17.039587,1.5876559 a 18.158348,15.662651 0 1 1 -36.316696,0 18.158348,15.662651 0 1 1 36.316696,0 z"
     transform="matrix(0.9822803,0,0,1.1387975,-0.27817221,-2.4577121)" />
  <path
     d="m -9.357276,0.62502289 0,-2.17187499 6.78125,0 0,-6.78125 2.17187504,0 0,6.78125 6.78124996,0 0,2.17187499 -6.78124996,0 0,6.78125001 -2.17187504,0 0,-6.78125001 -6.78125,0"
     style=""/>
</g>
  <path
     transform="matrix(0.9822803,0,0,1.1387975,-0.27817221,-2.4577121)"
     d="m 17.039587,1.5876559 a 18.158348,15.662651 0 1 1 -36.316696,0 18.158348,15.662651 0 1 1 36.316696,0 z"
     sodipodi:ry="15.662651"
     sodipodi:rx="18.158348"
     sodipodi:cy="1.5876559"
     sodipodi:cx="-1.1187607"
     id="iconCircleCover"
     style="opacity:0;fill:#ffffff;stroke:#ffffff"
     sodipodi:type="arc" />
</defs>

<rect x="0%" y="0%" width="100%" height="100%" stroke="none" fill="white"/>

<g id="workArea" transform="scale(3)"/>

</svg>

